<svg width="17" height="20" viewBox="0 0 17 20" fill="none" xmlns="http://www.w3.org/2000/svg">
<g clip-path="url(#clip0)">
<path d="M0 8.33956C0 7.20769 0.22068 6.12565 0.66204 5.09343C1.1034 4.06122 1.69781 3.17494 2.44527 2.4346C3.19274 1.69425 4.0808 1.1034 5.10945 0.66204C6.1381 0.22068 7.21481 0 8.33956 0C9.47144 0 10.5517 0.22068 11.5804 0.66204C12.609 1.1034 13.4953 1.69603 14.2392 2.43994C14.9831 3.18384 15.5757 4.07012 16.0171 5.09877C16.4584 6.12742 16.6791 7.20769 16.6791 8.33956C16.6791 10.1833 16.1328 11.8295 15.04 13.2782C13.9473 14.7268 12.5396 15.7181 10.8169 16.252V20H5.99039V16.2947C4.23207 15.7822 2.79409 14.7927 1.67645 13.3262C0.558818 11.8598 0 10.1975 0 8.33956ZM1.83663 8.33956C1.83663 10.105 2.47731 11.6213 3.75868 12.8884C5.02581 14.1627 6.55277 14.7998 8.33956 14.7998C9.51415 14.7998 10.6015 14.5115 11.6017 13.9349C12.6019 13.3582 13.3938 12.5734 13.9776 11.5804C14.5613 10.5873 14.8532 9.50703 14.8532 8.33956C14.8532 7.46396 14.6805 6.62573 14.3353 5.82488C13.99 5.02403 13.5255 4.33351 12.9418 3.75334C12.3581 3.17316 11.664 2.71045 10.8596 2.36519C10.0552 2.01993 9.21516 1.8473 8.33956 1.8473C7.46396 1.8473 6.62573 2.01993 5.82488 2.36519C5.02403 2.71045 4.33173 3.17316 3.748 3.75334C3.16426 4.33351 2.69977 5.02403 2.35451 5.82488C2.00925 6.62573 1.83663 7.46396 1.83663 8.33956ZM2.49867 8.74533V7.92312H4.9653V8.74533H2.49867ZM3.73732 4.7197L4.33529 4.13241L6.06514 5.86225L5.47784 6.46022L3.73732 4.7197ZM6.6204 10.3364C6.6204 9.85941 6.7859 9.44652 7.11692 9.0977C7.44794 8.74889 7.85193 8.56736 8.32888 8.55312L11.4362 3.43833L12.1837 3.83342L9.88788 9.33262C10.0872 9.61737 10.1869 9.95195 10.1869 10.3364C10.1869 10.8347 10.0125 11.2565 9.66364 11.6017C9.31482 11.947 8.89126 12.1196 8.39295 12.1196C7.90176 12.1196 7.48354 11.947 7.13828 11.6017C6.79302 11.2565 6.6204 10.8347 6.6204 10.3364ZM8.11532 5.01869V2.55206H8.9055V5.01869H8.11532ZM11.4576 8.73465V7.89108H13.9242V8.73465H11.4576Z" fill="black"/>
</g>
<defs>
<clipPath id="clip0">
<rect width="16.68" height="20" fill="white"/>
</clipPath>
</defs>
</svg>
