<svg width="18" height="18" viewBox="0 0 18 18" fill="none" xmlns="http://www.w3.org/2000/svg">
<g clip-path="url(#clip0)">
<path d="M0.00171661 8.98828C0.00171661 7.76953 0.238045 6.60352 0.710701 5.49023C1.18336 4.37695 1.82008 3.42188 2.62086 2.625C3.42164 1.82812 4.37476 1.19141 5.48023 0.714844C6.5857 0.238281 7.74781 0 8.96656 0C10.1931 0 11.3611 0.238281 12.4705 0.714844C13.5798 1.19141 14.5369 1.83008 15.3416 2.63086C16.1462 3.43164 16.7869 4.38672 17.2634 5.49609C17.74 6.60547 17.9783 7.76562 17.9783 8.97656C17.9783 10.1953 17.74 11.3613 17.2634 12.4746C16.7869 13.5879 16.1462 14.5469 15.3416 15.3516C14.5369 16.1562 13.5798 16.7949 12.4705 17.2676C11.3611 17.7402 10.197 17.9766 8.97828 17.9766C7.76734 17.9766 6.60719 17.7402 5.49781 17.2676C4.38844 16.7949 3.43336 16.1582 2.63258 15.3574C1.83179 14.5566 1.19312 13.6016 0.71656 12.4922C0.239998 11.3828 0.00171661 10.2148 0.00171661 8.98828ZM1.97047 8.98828C1.97047 10.2539 2.28492 11.4238 2.91383 12.498C3.54273 13.5723 4.39625 14.4199 5.47437 15.041C6.5525 15.6621 7.72047 15.9727 8.97828 15.9727C9.92359 15.9727 10.8298 15.7871 11.697 15.416C12.5642 15.0449 13.3123 14.5469 13.9412 13.9219C14.5701 13.2969 15.0701 12.5527 15.4412 11.6895C15.8123 10.8262 15.9978 9.92187 15.9978 8.97656C15.9978 7.07031 15.3025 5.42187 13.9119 4.03125C12.5212 2.65625 10.8728 1.96875 8.96656 1.96875C8.02125 1.96875 7.11695 2.15625 6.25367 2.53125C5.39039 2.90625 4.64625 3.40625 4.02125 4.03125C3.39625 4.65625 2.8982 5.40234 2.52711 6.26953C2.15601 7.13672 1.97047 8.04297 1.97047 8.98828ZM6.07203 6.30469C6.0564 6.21875 6.07008 6.15234 6.11304 6.10547C6.15601 6.05859 6.21656 6.05078 6.29469 6.08203L13.3494 9C13.4431 9.01563 13.49 9.05469 13.49 9.11719C13.49 9.1875 13.4431 9.24219 13.3494 9.28125L10.6658 10.5C10.5877 10.5313 10.5291 10.5898 10.49 10.6758L9.27125 13.3711C9.23219 13.457 9.1775 13.5 9.10719 13.5C9.04469 13.5 9.00562 13.457 8.99 13.3711L6.07203 6.30469Z" fill="black"/>
</g>
<defs>
<clipPath id="clip0">
<rect width="17.98" height="18" fill="white"/>
</clipPath>
</defs>
</svg>
